<svg width="32" height="32" viewBox="0 0 32 32" fill="none" xmlns="http://www.w3.org/2000/svg">
<path d="M5.33325 24.0003C5.33325 22.5858 5.89515 21.2293 6.89535 20.2291C7.89554 19.2289 9.2521 18.667 10.6666 18.667H21.3333C22.7477 18.667 24.1043 19.2289 25.1045 20.2291C26.1047 21.2293 26.6666 22.5858 26.6666 24.0003C26.6666 24.7076 26.3856 25.3858 25.8855 25.8859C25.3854 26.386 24.7072 26.667 23.9999 26.667H7.99992C7.29267 26.667 6.6144 26.386 6.1143 25.8859C5.6142 25.3858 5.33325 24.7076 5.33325 24.0003Z" stroke="black" stroke-width="1.33333" stroke-linejoin="round"/>
<path d="M16 13.3335C18.2091 13.3335 20 11.5426 20 9.3335C20 7.12436 18.2091 5.3335 16 5.3335C13.7909 5.3335 12 7.12436 12 9.3335C12 11.5426 13.7909 13.3335 16 13.3335Z" stroke="black" stroke-width="1.33333"/>
</svg>
